<?xml version="1.0" encoding="UTF-8" standalone="no"?>
<!DOCTYPE svg PUBLIC "-//W3C//DTD SVG 1.1//EN" "http://www.w3.org/Graphics/SVG/1.1/DTD/svg11.dtd">
<svg width="100%" height="100%" viewBox="0 0 256 256" version="1.1" xmlns="http://www.w3.org/2000/svg" xmlns:xlink="http://www.w3.org/1999/xlink" xml:space="preserve" xmlns:serif="http://www.serif.com/" style="fill-rule:evenodd;clip-rule:evenodd;stroke-linejoin:round;stroke-miterlimit:2;">
    <rect id="Instagram" x="0" y="0" width="256" height="256" style="fill:none;"/>
    <g id="Instagram1" serif:id="Instagram">
        <g id="Instagram2" serif:id="Instagram" transform="matrix(0.888036,0,0,0.888036,-28.1674,-572.957)">
            <g transform="matrix(1,0,0,1,251.189,748.928)">
                <path d="M0,80.812C0,100.354 -15.841,116.195 -35.385,116.195L-115.282,116.195C-134.824,116.195 -150.665,100.354 -150.665,80.812L-150.665,0.919C-150.665,-18.624 -134.824,-34.465 -115.282,-34.465L-35.385,-34.465C-15.841,-34.465 0,-18.624 0,0.919L0,80.812ZM-36.298,-51.932L-114.367,-51.932C-143.806,-51.932 -167.672,-28.066 -167.672,1.374L-167.672,79.439C-167.672,108.878 -143.806,132.744 -114.367,132.744L-36.298,132.744C-6.857,132.744 17.007,108.878 17.007,79.439L17.007,1.374C17.007,-28.066 -6.857,-51.932 -36.298,-51.932" style="fill:rgb(32,205,200);fill-rule:nonzero;"/>
            </g>
            <g transform="matrix(1,0,0,1,175.856,758.733)">
                <path d="M0,62.12C-17.155,62.12 -31.061,48.215 -31.061,31.061C-31.061,13.908 -17.155,-0 0,-0C17.155,-0 31.063,13.908 31.063,31.061C31.063,48.215 17.155,62.12 0,62.12M0,-16.856C-26.462,-16.856 -47.917,4.599 -47.917,31.061C-47.917,57.523 -26.462,78.976 0,78.976C26.467,78.976 47.92,57.523 47.92,31.061C47.92,4.599 26.467,-16.856 0,-16.856" style="fill:rgb(32,205,200);fill-rule:nonzero;"/>
            </g>
            <g transform="matrix(-1,0,0,1,225.37,751.218)">
                <path d="M-0.004,-22.326C6.162,-22.326 11.16,-17.329 11.16,-11.164C11.16,-4.997 6.162,0 -0.004,0C-6.166,0 -11.164,-4.997 -11.164,-11.164C-11.164,-17.329 -6.166,-22.326 -0.004,-22.326" style="fill:rgb(32,205,200);fill-rule:nonzero;"/>
            </g>
        </g>
    </g>
</svg>
