<svg width="44" height="44" viewBox="0 0 44 44" fill="none" xmlns="http://www.w3.org/2000/svg">
<circle cx="21.5714" cy="21.5714" r="20.5714" stroke="#20DC6E" stroke-width="2"/>
<g clip-path="url(#clip0_549_11985)">
<path d="M24.7709 18.3716C26.2258 18.3716 27.6211 18.9495 28.6499 19.9783C29.6786 21.0071 30.2566 22.4024 30.2566 23.8573V30.2573H26.5994V23.8573C26.5994 23.3723 26.4068 22.9072 26.0639 22.5643C25.7209 22.2214 25.2558 22.0287 24.7709 22.0287C24.2859 22.0287 23.8208 22.2214 23.4779 22.5643C23.135 22.9072 22.9423 23.3723 22.9423 23.8573V30.2573H19.2852V23.8573C19.2852 22.4024 19.8631 21.0071 20.8919 19.9783C21.9207 18.9495 23.316 18.3716 24.7709 18.3716V18.3716Z" stroke="#20DC6E" stroke-width="2" stroke-linecap="round" stroke-linejoin="round"/>
<path d="M15.6278 19.2856H11.9707V30.2571H15.6278V19.2856Z" stroke="#20DC6E" stroke-width="2" stroke-linecap="round" stroke-linejoin="round"/>
<path d="M13.7993 16.5429C14.8092 16.5429 15.6278 15.7242 15.6278 14.7143C15.6278 13.7044 14.8092 12.8857 13.7993 12.8857C12.7894 12.8857 11.9707 13.7044 11.9707 14.7143C11.9707 15.7242 12.7894 16.5429 13.7993 16.5429Z" stroke="#20DC6E" stroke-width="2" stroke-linecap="round" stroke-linejoin="round"/>
</g>
<defs>
<clipPath id="clip0_549_11985">
<rect width="21.9429" height="21.9429" fill="white" transform="translate(10.1426 11.0571)"/>
</clipPath>
</defs>
</svg>
